<?xml version="1.0" encoding="utf-8"?>
<!-- Generator: Adobe Illustrator 27.0.1, SVG Export Plug-In . SVG Version: 6.00 Build 0)  -->
<svg version="1.1" id="Calque_1" xmlns="http://www.w3.org/2000/svg" xmlns:xlink="http://www.w3.org/1999/xlink" x="0px" y="0px"
	 viewBox="0 0 8192 4000" style="enable-background:new 0 0 8192 4000;" xml:space="preserve">
<style type="text/css">
	.st0{fill:#FFFFFF;}
	.st1{fill:none;stroke:#FFFFFF;stroke-width:50;stroke-linecap:round;stroke-linejoin:round;stroke-miterlimit:5.4613;}
</style>
<path class="st0" d="M2703.8,2212.9c-12.1,26.4-29.3,48.3-51.7,65.9s-49.5,30.8-81,39.5c-31.6,8.8-66.5,13.1-105,13.1h-325.2v-768.2
	h317.3c70.3,0,125.4,18,165.5,53.8c40,35.9,60.1,84.2,60.1,144.9v2.2c0,22-2.4,41.3-7.3,58.2s-11.3,32-19.5,45.6
	c-8.1,13.6-17.5,25.5-28.2,35.7c-10.7,10.2-22.2,19-34.5,26.4c39.6,16.8,70.8,39.7,93.5,68.6s34.1,69,34.1,120.2v2.2
	C2721.8,2155.9,2715.8,2186.7,2703.8,2212.9z M2535,1790.4c0-25.6-8.5-45.2-25.4-58.7c-17-13.5-41.4-20.3-73.4-20.3h-148.7v162.4
	h138.9c33.3,0,59.6-6.4,79.2-19.2c19.6-12.8,29.4-33.5,29.4-62V1790.4z M2573.1,2097.7c0-25.6-8.8-45.9-26.4-60.9
	c-17.6-15-46-22.5-85.1-22.5h-174.1v169h179c33.3,0,59.3-6.8,78.2-20.3c18.9-13.5,28.4-34.6,28.4-63.1L2573.1,2097.7L2573.1,2097.7z
	"/>
<path class="st0" d="M3358.1,2074.7c-0.3,5.8-0.8,12.8-1.5,20.8h-364.8c7.2,38.1,22,66.8,44.5,86.1c22.5,19.4,50.4,29.1,83.6,29.1
	c24.7,0,46.9-4.8,66.5-14.3c19.6-9.5,39.7-24.9,60.6-46.1l85.1,84.5c-24.8,34.4-54.8,61.3-90,80.7s-76.6,29.1-124.2,29.1
	c-39.1,0-75.5-7.3-109.1-22c-33.6-14.6-62.6-35.5-87.1-62.6c-24.4-27.1-43.5-59.1-57.2-96c-13.7-36.9-20.5-78.1-20.5-123.5v-2.2
	c0-41.7,6.3-81.2,19.1-118.6c12.7-37.3,30.5-69.9,53.3-97.7c22.8-27.8,50.1-49.7,81.6-65.9c31.6-16.1,66.7-24.2,105.2-24.2
	c43.7,0,81.5,8.8,113.4,26.4c32,17.5,58.5,41.2,79.7,70.8c21.2,29.6,36.8,63.7,46.9,102.1c10.1,38.4,15.2,78.5,15.2,120.2v2.2
	C3358.5,2061.9,3358.4,2068.8,3358.1,2074.7z M3178.6,1900.7c-18.9-23-44-34.6-75.3-34.6c-31.3,0-56.6,11.4-75.8,34
	c-19.2,22.7-31.8,53.1-37.7,91.1h224C3209.2,1953.9,3197.5,1923.8,3178.6,1900.7z"/>
<path class="st0" d="M3814.3,2331.5v-63.7c-18.3,22.7-40.1,40.8-65.5,54.3c-25.4,13.6-56.4,20.3-92.9,20.3c-24.8,0-48.1-3.9-70-11.5
	c-21.8-7.7-40.9-19.2-57.2-34.6c-16.3-15.3-29.2-34.2-38.6-56.5s-14.2-48.1-14.2-77.4v-2.2c0-32.2,5.2-60,15.7-83.4
	c10.4-23.4,24.9-42.8,43.5-58.2s40.7-26.9,66.5-34.6c25.7-7.7,54.3-11.5,85.6-11.5c26.7,0,50.1,2.2,70,6.6
	c19.9,4.4,39.3,10.2,58.2,17.5v-9.9c0-35.1-9.5-61.8-28.4-80.1c-18.9-18.3-46.9-27.4-84.1-27.4c-28.7,0-54,2.7-75.8,8.2
	c-21.8,5.5-44.8,13.4-69,23.6l-37.2-127.3c28.7-13.9,58.7-25.2,90-34c31.3-8.8,69.1-13.1,113.5-13.1c81.5,0,140.8,22.3,178,66.9
	c37.2,44.6,55.7,106.8,55.7,186.6v341.3L3814.3,2331.5L3814.3,2331.5z M3817.2,2094.4c-13.1-6.6-27.5-11.9-43.5-15.9
	s-33.1-6.1-51.4-6.1c-32,0-57.1,7-75.3,20.9c-18.3,13.9-27.4,34-27.4,60.4v2.2c0,22.7,7.5,40.3,22.5,52.7
	c15,12.4,34.6,18.7,58.7,18.7c35.2,0,63.4-9.5,84.6-28.6c21.2-19,31.8-43.9,31.8-74.6L3817.2,2094.4L3817.2,2094.4z"/>
<path class="st0" d="M4452,2331.5v-84.1c-8.5,12.6-17.8,24.5-27.9,35.9c-10.1,11.4-21.4,21.6-33.8,30.4c-12.4,8.9-26.1,15.8-41.1,21
	c-15,5.1-32,7.7-50.9,7.7c-56.7,0-100.6-19.4-131.6-58.2s-46.5-92.2-46.5-160.3v-380.8h148.7v327.4c0,39.4,7.8,69.2,23.4,89.2
	c15.7,20,37.8,30.1,66.5,30.1c28.7,0,51.4-10.1,68-30.1c16.6-20,24.9-49.8,24.9-89.2v-327.4h148.7v588.3L4452,2331.5L4452,2331.5z"
	/>
<path class="st0" d="M5014.4,2332c-18.9,6.2-40.7,9.3-65.5,9.3c-22.8,0-43.5-2.7-62.1-8.2c-18.6-5.5-34.6-15.2-47.9-29.1
	c-13.4-13.9-23.8-32-31.3-54.3c-7.5-22.3-11.3-50.7-11.3-85.1v-278.8h-62.6v-142.7h62.6v-150.4H4945v150.4h123.2v142.7H4945v251.3
	c0,38.1,16,57,47.9,57c26.1,0,50.5-7,73.4-20.8v133.9C5050.6,2317.6,5033.3,2325.9,5014.4,2332z"/>
<path class="st0" d="M5513.2,2345.8c-9.8,30-20.2,55.4-31.3,76.3c-11.1,20.8-23.3,37.9-36.7,51c-13.4,13.2-28.5,22.7-45.5,28.6
	c-17,5.8-36.5,8.8-58.7,8.8c-27.4,0-51.5-3.7-72.4-11c-20.9-7.3-40.7-17.2-59.7-29.6l49.9-120.8c9.8,6.6,20.4,12.1,31.8,16.5
	c11.4,4.4,22,6.6,31.8,6.6c13.1,0,23.3-2.7,30.8-8.2c7.5-5.5,14.5-15.6,21-30.2l-205.4-590.5h157.5l119.3,400.6l114.4-400.6h154.5
	L5513.2,2345.8z"/>
<path class="st0" d="M6504,2331.5v-327.4c0-39.4-7.8-69.2-23.5-89.2c-15.7-20-37.8-30.1-66.5-30.1c-28.7,0-51.4,10.1-68,30.1
	c-16.6,20-24.9,49.8-24.9,89.2v327.4h-148.7v-801.2H6321v297c8.5-12.5,17.8-24.5,27.9-35.9c10.1-11.4,21.3-21.5,33.8-30.4
	c12.4-8.9,26.1-15.8,41.1-21c15-5.2,32-7.7,50.9-7.7c56.7,0,100.6,19.4,131.6,58.2c31,38.8,46.5,92.2,46.5,160.3v380.8L6504,2331.5
	L6504,2331.5z"/>
<path class="st0" d="M7127,2331.5v-63.7c-18.3,22.7-40.1,40.8-65.5,54.3c-25.4,13.6-56.4,20.3-92.9,20.3c-24.8,0-48.1-3.9-70-11.5
	c-21.8-7.7-40.9-19.2-57.2-34.6c-16.3-15.3-29.2-34.2-38.6-56.5c-9.5-22.3-14.2-48.1-14.2-77.4v-2.2c0-32.2,5.2-60,15.7-83.4
	s24.9-42.8,43.5-58.2c18.6-15.3,40.7-26.9,66.5-34.6c25.7-7.7,54.3-11.5,85.6-11.5c26.7,0,50.1,2.2,70,6.6
	c19.9,4.4,39.3,10.2,58.2,17.5v-9.9c0-35.1-9.5-61.8-28.4-80.1c-18.9-18.3-46.9-27.4-84.1-27.4c-28.7,0-54,2.7-75.8,8.2
	c-21.8,5.5-44.8,13.4-69,23.6l-37.2-127.3c28.7-13.9,58.7-25.2,90-34c31.3-8.8,69.1-13.1,113.4-13.1c81.5,0,140.8,22.3,178,66.9
	c37.2,44.6,55.8,106.8,55.8,186.6v341.3L7127,2331.5L7127,2331.5z M7129.9,2094.4c-13.1-6.6-27.5-11.9-43.5-15.9s-33.1-6.1-51.4-6.1
	c-32,0-57.1,7-75.3,20.9c-18.3,13.9-27.4,34-27.4,60.4v2.2c0,22.7,7.5,40.3,22.5,52.7c15,12.4,34.6,18.7,58.7,18.7
	c35.2,0,63.4-9.5,84.6-28.6c21.2-19,31.8-43.9,31.8-74.6L7129.9,2094.4L7129.9,2094.4z"/>
<path class="st0" d="M7440,1678.4v-148.2h156.5v148.2H7440z M7443.9,2331.5v-588.3h148.7v588.3H7443.9z"/>
<path class="st0" d="M8078.7,1906.8c-49.6,0-88.5,16.8-116.9,50.5c-28.4,33.7-42.5,86-42.5,156.9v217.3h-148.7v-588.3h148.7v118.6
	c15-40.2,35.5-72.5,61.6-96.6c26.1-24.2,61.3-35.1,105.7-33v174.5H8078.7L8078.7,1906.8z"/>
<path class="st1" d="M1789.2,1540.4c-148.3-75.1-391.7-7-424.7,136.8c-27.9,121.3,7.3,269.8,48.1,383.3
	c33.1,92.1-54.2,85.4-117.8,139"/>
<path class="st1" d="M1452.9,2340.7c-21.3,20.8-142.2,19.9-176.9,23.9c-42.3,4.9-132.6-2.8-147.1-45"/>
<path class="st1" d="M1392.2,2351.3c-31.2-23.1-20.7-60.1-56.6-68.2c-17.5-4.2-47.1,37.1-65.2,38.1c-43.8-63.1-65.7-21.4-87.5,24.5"
	/>
<path class="st1" d="M1391.9,2400.4c-15.2,16.5-95.6,91.4-183.4-1.4"/>
<path class="st1" d="M1726.7,1991.1c-8.3,156.6-46.5,282.9-133.5,416.6c-62.2,95.7-183.3,228.3-310.4,231.7
	c-80.7,2.2-149.4-38.4-213.3-80.8"/>
<path class="st1" d="M1501.4,1148.2c-10.1,86.6-39.4,177.6-100.6,243.8c-61.9,67-147.7,101.4-223.8,150.1
	c-182.7,117.1-45.6,287.9-37.6,452.7c9.6,196.4-193.7,236.6-310.4,355.3c-93,94.5-132.5,251.7-68.8,370.7
	c76.1,142.2,233.6,188.9,379.1,121.5"/>
<path class="st1" d="M1270.2,1081.4c-25.6,176.8-120.1,300.4-320,301.1c-149.7,0.5-315-25-431.1,89.9
	c-129.4,128.1-60.6,303.5,20.5,436.5c55.8,91.4,110.7,235.2-32.7,275.4c-137.5,38.6-276,70.3-285.4,236.6
	C215,2537,309.2,2618.4,393.4,2688"/>
<path class="st1" d="M1517.1,1736.4c37.3,42.8,123.5,54.8,150.4,49.5c44.2-8.7,84.6-43.4,126-60.5"/>
<path class="st1" d="M1718.5,1772.1c23.9,44.1,59.7,60.7,99.9,58.1"/>
<path class="st1" d="M1654.2,1792c-3.7-0.4,14.9,33.3,52.2,57.1"/>
<path class="st1" d="M1577.1,1777.7c0,19,14.9,35.7,34.8,61.9"/>
</svg>
