<?xml version="1.0" encoding="utf-8"?>
<!-- Generator: Adobe Illustrator 27.0.1, SVG Export Plug-In . SVG Version: 6.00 Build 0)  -->
<svg version="1.1" id="Calque_1" xmlns="http://www.w3.org/2000/svg" xmlns:xlink="http://www.w3.org/1999/xlink" x="0px" y="0px"
	 viewBox="0 0 15000 4000" style="enable-background:new 0 0 15000 4000;" xml:space="preserve">
<style type="text/css">
	.st0{fill:#110015;}
	.st1{fill:none;stroke:#231F20;stroke-width:40;stroke-linecap:round;stroke-linejoin:round;stroke-miterlimit:10;}
</style>
<g>
	<path class="st0" d="M4874.6,2374.1c-19.4,44.3-47.1,81.2-83.2,110.7s-79.6,51.7-130.3,66.4c-50.8,14.8-107,22.1-168.8,22.1h-522.9
		V1281.9h510.3c113,0,201.7,30.2,266.1,90.4c64.4,60.3,96.6,141.5,96.6,243.5v3.7c0,36.9-3.9,69.5-11.7,97.8
		c-7.8,28.3-18.2,53.8-31.3,76.6c-13,22.8-28.1,42.8-45.3,60c-17.2,17.2-35.7,32-55.5,44.3c63.7,28.3,113.8,66.7,150.3,115.3
		c36.5,48.6,54.8,116,54.8,202v3.7C4903.6,2278.2,4893.9,2329.9,4874.6,2374.1z M4603.2,1663.8c0-43-13.6-75.9-40.9-98.7
		c-27.3-22.7-66.6-34.1-118-34.1h-239.1V1804h223.4c53.5,0,95.9-10.7,127.4-32.3c31.5-21.5,47.2-56.3,47.2-104.2V1663.8z
		 M4664.5,2180.4c0-43-14.2-77.2-42.5-102.4c-28.3-25.2-73.9-37.8-136.8-37.8h-280v284.1h287.8c53.5,0,95.4-11.4,125.8-34.1
		c30.4-22.7,45.6-58.1,45.6-106.1V2180.4z"/>
	<path class="st0" d="M5926.8,2141.7c-0.5,9.8-1.3,21.5-2.4,35h-586.7c11.5,64,35.4,112.3,71.6,144.8c36.2,32.6,81,48.9,134.5,48.9
		c39.8,0,75.5-8,107-24c31.5-16,63.9-41.8,97.5-77.5l136.8,142.1c-39.9,57.8-88.1,103-144.7,135.6c-56.6,32.6-123.2,48.9-199.8,48.9
		c-62.9,0-121.4-12.3-175.4-36.9c-54-24.6-100.7-59.6-140-105.2c-39.3-45.5-70-99.3-92-161.4c-22-62.1-33-131.3-33-207.6v-3.7
		c0-70.1,10.2-136.5,30.7-199.3c20.5-62.7,49-117.5,85.7-164.2c36.7-46.7,80.5-83.6,131.3-110.7c50.8-27,107.2-40.6,169.1-40.6
		c70.2,0,131.1,14.8,182.4,44.3c51.4,29.5,94.1,69.2,128.2,119c34.1,49.8,59.2,107,75.5,171.6c16.2,64.6,24.4,131.9,24.4,202v3.7
		C5927.5,2120.2,5927.3,2131.8,5926.8,2141.7z M5638.1,1849.2c-30.4-38.7-70.8-58.1-121.1-58.1c-50.3,0-91,19.1-121.9,57.2
		c-30.9,38.1-51.1,89.2-60.6,153.1h360.2C5687.4,1938.7,5668.5,1888,5638.1,1849.2z"/>
	<path class="st0" d="M6660.5,2573.4v-107c-29.4,38.1-64.5,68.6-105.4,91.3c-40.9,22.8-90.7,34.1-149.4,34.1
		c-39.9,0-77.3-6.5-112.5-19.4c-35.1-12.9-65.8-32.3-92-58.1c-26.2-25.8-46.9-57.5-62.1-95c-15.2-37.5-22.8-80.9-22.8-130.1v-3.7
		c0-54.1,8.4-100.8,25.2-140.2c16.8-39.4,40.1-72,70-97.8c29.9-25.8,65.5-45.2,107-58.1c41.4-12.9,87.3-19.4,137.6-19.4
		c43,0,80.5,3.7,112.5,11.1c32,7.4,63.2,17.2,93.6,29.5v-16.6c0-59-15.2-103.9-45.6-134.7c-30.4-30.7-75.5-46.1-135.3-46.1
		c-46.1,0-86.8,4.6-121.9,13.8c-35.1,9.2-72.1,22.5-110.9,39.7l-59.8-214c46.1-23.4,94.4-42.4,144.7-57.2
		c50.3-14.8,111.1-22.1,182.5-22.1c131.1,0,226.5,37.5,286.3,112.5c59.8,75,89.6,179.6,89.6,313.7v573.8H6660.5z M6665.2,2174.9
		c-21-11.1-44.3-20-70-26.7c-25.7-6.7-53.2-10.2-82.6-10.2c-51.4,0-91.8,11.7-121.1,35.1c-29.4,23.4-44,57.2-44,101.5v3.7
		c0,38.1,12,67.7,36.2,88.6c24.1,20.9,55.6,31.4,94.4,31.4c56.6,0,102-16,136.1-48c34.1-32,51.1-73.8,51.1-125.4V2174.9z"/>
	<path class="st0" d="M7686,2573.4V2432c-13.6,21.1-28.6,41.2-44.8,60.4c-16.3,19.2-34.4,36.3-54.3,51.1
		c-19.9,14.9-41.9,26.6-66.1,35.3c-24.1,8.6-51.4,13-81.8,13c-91.2,0-161.8-32.6-211.6-97.8c-49.8-65.2-74.7-155-74.7-269.4v-640.2
		h239.1v550.3c0,66.3,12.6,116.3,37.7,150c25.2,33.7,60.8,50.6,107,50.6c46.1,0,82.6-16.9,109.3-50.6c26.7-33.7,40.1-83.7,40.1-150
		v-550.3h239.1v988.9H7686z"/>
	<path class="st0" d="M8590.4,2574.3c-30.4,10.5-65.5,15.7-105.4,15.7c-36.7,0-70-4.6-99.9-13.8c-29.9-9.2-55.6-25.5-77.1-48.9
		c-21.5-23.4-38.3-53.8-50.3-91.3c-12.1-37.5-18.1-85.2-18.1-143v-468.6H8139v-239.9h100.7v-252.8h239.1v252.8h198.2v239.9h-198.2
		v422.5c0,64,25.7,95.9,77.1,95.9c41.9,0,81.2-11.7,118-35v225.1C8648.6,2550.1,8620.8,2563.9,8590.4,2574.3z"/>
	<path class="st0" d="M9392.5,2597.4c-15.7,50.4-32.5,93.2-50.3,128.2c-17.8,35-37.5,63.7-59,85.8c-21.5,22.2-45.9,38.1-73.1,48
		c-27.3,9.8-58.7,14.8-94.4,14.8c-44,0-82.8-6.2-116.4-18.5c-33.6-12.3-65.5-28.9-96-49.8l80.2-203c15.7,11.1,32.8,20.3,51.1,27.7
		c18.3,7.4,35.4,11.1,51.1,11.1c21,0,37.5-4.6,49.5-13.8c12-9.2,23.3-26.2,33.8-50.7l-330.3-992.6h253.2l191.9,673.4l184-673.4
		h248.5L9392.5,2597.4z"/>
	<path class="st0" d="M10985.8,2573.4v-550.3c0-66.2-12.6-116.3-37.8-150c-25.2-33.7-60.8-50.6-107-50.6
		c-46.2,0-82.6,16.9-109.3,50.6c-26.7,33.7-40.1,83.7-40.1,150v550.3h-239.1V1226.5h239.1v499.3c13.6-21,28.6-41.2,44.8-60.4
		c16.3-19.2,34.3-36.2,54.3-51.1c19.9-14.9,41.9-26.6,66.1-35.3c24.1-8.7,51.4-13,81.8-13c91.2,0,161.7,32.6,211.6,97.8
		c49.8,65.2,74.7,155,74.7,269.4v640.2H10985.8z"/>
	<path class="st0" d="M11987.7,2573.4v-107c-29.4,38.1-64.5,68.6-105.4,91.3c-40.9,22.8-90.7,34.1-149.4,34.1
		c-39.9,0-77.3-6.5-112.5-19.4c-35.1-12.9-65.8-32.3-92-58.1c-26.2-25.8-46.9-57.5-62.1-95c-15.2-37.5-22.8-80.9-22.8-130.1v-3.7
		c0-54.1,8.4-100.8,25.2-140.2c16.8-39.4,40.1-72,70-97.8c29.9-25.8,65.5-45.2,107-58.1c41.4-12.9,87.3-19.4,137.6-19.4
		c43,0,80.5,3.7,112.5,11.1c32,7.4,63.2,17.2,93.6,29.5v-16.6c0-59-15.2-103.9-45.6-134.7c-30.4-30.7-75.5-46.1-135.3-46.1
		c-46.2,0-86.8,4.6-121.9,13.8c-35.1,9.2-72.1,22.5-110.9,39.7l-59.8-214c46.1-23.4,94.4-42.4,144.7-57.2
		c50.3-14.8,111.1-22.1,182.4-22.1c131.1,0,226.5,37.5,286.3,112.5c59.8,75,89.7,179.6,89.7,313.7v573.8H11987.7z M11992.4,2174.9
		c-21-11.1-44.3-20-70-26.7c-25.7-6.7-53.2-10.2-82.6-10.2c-51.4,0-91.8,11.7-121.1,35.1c-29.4,23.4-44,57.2-44,101.5v3.7
		c0,38.1,12,67.7,36.2,88.6c24.1,20.9,55.6,31.4,94.4,31.4c56.6,0,102-16,136.1-48c34.1-32,51.1-73.8,51.1-125.4V2174.9z"/>
	<path class="st0" d="M12491,1475.6v-249.1h251.7v249.1H12491z M12497.3,2573.4v-988.9h239.1v988.9H12497.3z"/>
	<path class="st0" d="M13518.1,1859.4c-79.7,0-142.3,28.3-188,84.9c-45.6,56.6-68.4,144.5-68.4,263.8v365.3h-239.1v-988.9h239.1
		v199.3c24.1-67.6,57.1-121.8,99.1-162.4c41.9-40.6,98.6-59,169.9-55.4v293.4H13518.1z"/>
</g>
<g>
	<path class="st1" d="M3403.9,1243.5c-238.5-126.3-629.9-11.8-683,230c-44.8,203.9,11.7,453.6,77.3,644.4
		c53.2,154.8-87.1,143.5-189.5,233.7"/>
	<path class="st1" d="M2863,2588.8c-34.2,35-228.7,33.5-284.4,40.2c-68.1,8.2-213.2-4.7-236.5-75.7"/>
	<path class="st1" d="M2765.4,2606.7c-50.1-38.9-33.3-101-91-114.6c-28.1-7-75.8,62.4-104.8,64.1c-70.5-106.1-105.6-36-140.7,41.2"
		/>
	<path class="st1" d="M2765,2689.2c-24.5,27.7-153.7,153.6-294.9-2.3"/>
	<path class="st1" d="M3303.4,2001.1c-13.4,263.3-74.7,475.6-214.7,700.3c-100.1,160.8-294.7,383.7-499.2,389.5
		c-129.8,3.7-240.3-64.6-343-135.9"/>
	<path class="st1" d="M2941,584.2c-16.2,145.5-63.4,298.5-161.8,409.9c-99.5,112.6-237.6,170.4-359.9,252.4
		c-293.8,196.9-73.4,483.9-60.4,761c15.5,330.2-311.5,397.7-499.2,597.2c-149.5,158.9-213,423.1-110.7,623.1
		c122.4,239.1,375.7,317.5,609.7,204.3"/>
	<path class="st1" d="M2569.2,471.9C2528,769.1,2376,976.8,2054.6,978c-240.8,0.9-506.5-42.1-693.3,151.1
		c-208.1,215.3-97.4,510.2,33,733.7c89.7,153.7,178,395.3-52.6,462.9c-221.1,64.9-443.9,118.1-458.9,397.7
		c-10.5,195.4,141,332.2,276.4,449.2"/>
	<path class="st1" d="M2966.2,1573c60,72,198.6,92.1,241.9,83.2c71.1-14.6,136-72.9,202.6-101.7"/>
	<path class="st1" d="M3290.2,1633c38.5,74.1,96,102,160.6,97.6"/>
	<path class="st1" d="M3186.7,1666.5c-5.9-0.7,24,56,84,96"/>
	<path class="st1" d="M3062.7,1642.5c0,31.9,24,60,56,104"/>
</g>
</svg>
