<?xml version="1.0" encoding="utf-8"?>
<!-- Generator: Adobe Illustrator 27.0.1, SVG Export Plug-In . SVG Version: 6.00 Build 0)  -->
<svg version="1.1" id="Calque_1" xmlns="http://www.w3.org/2000/svg" xmlns:xlink="http://www.w3.org/1999/xlink" x="0px" y="0px"
	 viewBox="0 0 9772.4 2931" style="enable-background:new 0 0 9772.4 2931;" xml:space="preserve">
<style type="text/css">
	.st0{fill:#110015;}
</style>
<g>
	<path class="st0" d="M982.6,2018c-19.4,44.3-47.1,81.2-83.2,110.7c-36.1,29.5-79.6,51.7-130.3,66.4c-50.8,14.8-107,22.1-168.8,22.1
		H77.3V925.7h510.3c113,0,201.7,30.2,266.1,90.4c64.4,60.3,96.6,141.5,96.6,243.5v3.7c0,36.9-3.9,69.5-11.7,97.8
		c-7.8,28.3-18.2,53.8-31.3,76.6c-13,22.8-28.1,42.8-45.3,60c-17.2,17.2-35.7,32-55.5,44.3c63.7,28.3,113.8,66.7,150.3,115.3
		c36.5,48.6,54.8,116,54.8,202v3.7C1011.6,1922,1001.9,1973.7,982.6,2018z M711.2,1307.6c0-43-13.6-75.9-40.9-98.7
		c-27.3-22.7-66.6-34.1-118-34.1H313.3v273.1h223.4c53.5,0,95.9-10.7,127.4-32.3c31.5-21.5,47.2-56.3,47.2-104.2V1307.6z
		 M772.5,1824.2c0-43-14.2-77.2-42.5-102.4c-28.3-25.2-73.9-37.8-136.8-37.8h-280v284.1h287.8c53.5,0,95.4-11.4,125.8-34.1
		c30.4-22.7,45.6-58.1,45.6-106.1V1824.2z"/>
	<path class="st0" d="M2034.7,1785.5c-0.5,9.8-1.3,21.5-2.4,35h-586.7c11.5,64,35.4,112.3,71.6,144.8c36.2,32.6,81,48.9,134.5,48.9
		c39.8,0,75.5-8,107-24c31.5-16,63.9-41.8,97.5-77.5l136.8,142.1c-39.9,57.8-88.1,103-144.7,135.6s-123.2,48.9-199.8,48.9
		c-62.9,0-121.4-12.3-175.4-36.9c-54-24.6-100.7-59.6-140-105.2c-39.3-45.5-70-99.3-92-161.4c-22-62.1-33-131.3-33-207.6v-3.7
		c0-70.1,10.2-136.5,30.7-199.3c20.5-62.7,49-117.5,85.7-164.2c36.7-46.7,80.5-83.6,131.3-110.7c50.8-27,107.2-40.6,169.1-40.6
		c70.2,0,131.1,14.8,182.4,44.3c51.4,29.5,94.1,69.2,128.2,119c34.1,49.8,59.2,107,75.5,171.6c16.2,64.6,24.4,131.9,24.4,202v3.7
		C2035.5,1764,2035.3,1775.7,2034.7,1785.5z M1746.1,1493c-30.4-38.7-70.8-58.1-121.1-58.1c-50.3,0-91,19.1-121.9,57.2
		c-30.9,38.1-51.1,89.2-60.6,153.1h360.2C1795.4,1582.5,1776.5,1531.8,1746.1,1493z"/>
	<path class="st0" d="M2768.5,2217.2v-107c-29.4,38.1-64.5,68.6-105.4,91.3c-40.9,22.8-90.7,34.1-149.4,34.1
		c-39.9,0-77.3-6.5-112.5-19.4c-35.1-12.9-65.8-32.3-92-58.1c-26.2-25.8-46.9-57.5-62.1-95c-15.2-37.5-22.8-80.9-22.8-130.1v-3.7
		c0-54.1,8.4-100.8,25.2-140.2c16.8-39.4,40.1-72,70-97.8c29.9-25.8,65.5-45.2,107-58.1c41.4-12.9,87.3-19.4,137.6-19.4
		c43,0,80.5,3.7,112.5,11.1c32,7.4,63.2,17.2,93.6,29.5v-16.6c0-59-15.2-103.9-45.6-134.7c-30.4-30.7-75.5-46.1-135.3-46.1
		c-46.1,0-86.8,4.6-121.9,13.8c-35.1,9.2-72.1,22.5-110.9,39.7l-59.8-214c46.1-23.4,94.4-42.4,144.7-57.2
		c50.3-14.8,111.1-22.1,182.5-22.1c131.1,0,226.5,37.5,286.3,112.5c59.8,75,89.6,179.6,89.6,313.7v573.8H2768.5z M2773.2,1818.7
		c-21-11.1-44.3-20-70-26.7c-25.7-6.7-53.2-10.2-82.6-10.2c-51.4,0-91.8,11.7-121.1,35.1c-29.4,23.4-44,57.2-44,101.5v3.7
		c0,38.1,12,67.7,36.2,88.6c24.1,20.9,55.6,31.4,94.4,31.4c56.6,0,102-16,136.1-48c34.1-32,51.1-73.8,51.1-125.4V1818.7z"/>
	<path class="st0" d="M3794,2217.2v-141.4c-13.6,21.1-28.6,41.2-44.8,60.4c-16.3,19.2-34.4,36.3-54.3,51.1
		c-19.9,14.9-41.9,26.6-66.1,35.3c-24.1,8.6-51.4,13-81.8,13c-91.2,0-161.8-32.6-211.6-97.8c-49.8-65.2-74.7-155-74.7-269.4v-640.2
		h239.1v550.3c0,66.3,12.6,116.3,37.7,150c25.2,33.7,60.8,50.6,107,50.6c46.1,0,82.6-16.9,109.3-50.6c26.7-33.7,40.1-83.7,40.1-150
		v-550.3h239.1v988.9H3794z"/>
	<path class="st0" d="M4698.4,2218.1c-30.4,10.5-65.5,15.7-105.4,15.7c-36.7,0-70-4.6-99.9-13.8c-29.9-9.2-55.6-25.5-77.1-48.9
		c-21.5-23.4-38.3-53.8-50.3-91.3c-12.1-37.5-18.1-85.2-18.1-143v-468.6H4247v-239.9h100.7V975.5h239.1v252.8h198.2v239.9h-198.2
		v422.5c0,64,25.7,95.9,77.1,95.9c41.9,0,81.2-11.7,118-35v225.1C4756.6,2193.9,4728.8,2207.7,4698.4,2218.1z"/>
	<path class="st0" d="M5500.5,2241.2c-15.7,50.4-32.5,93.2-50.3,128.2c-17.8,35-37.5,63.7-59,85.8c-21.5,22.2-45.9,38.1-73.1,48
		c-27.3,9.8-58.7,14.8-94.4,14.8c-44,0-82.8-6.2-116.4-18.5c-33.6-12.3-65.5-28.9-96-49.8l80.2-203c15.7,11.1,32.8,20.3,51.1,27.7
		c18.3,7.4,35.4,11.1,51.1,11.1c21,0,37.5-4.6,49.5-13.8c12-9.2,23.3-26.2,33.8-50.7l-330.3-992.6h253.2l191.9,673.4l184-673.4
		h248.5L5500.5,2241.2z"/>
	<path class="st0" d="M7093.8,2217.2v-550.3c0-66.2-12.6-116.3-37.8-150c-25.2-33.7-60.8-50.6-107-50.6
		c-46.2,0-82.6,16.9-109.3,50.6c-26.7,33.7-40.1,83.7-40.1,150v550.3h-239.1V870.3h239.1v499.3c13.6-21,28.6-41.2,44.8-60.4
		c16.3-19.2,34.3-36.2,54.3-51.1c19.9-14.9,41.9-26.6,66.1-35.3c24.1-8.7,51.4-13,81.8-13c91.2,0,161.7,32.6,211.6,97.8
		c49.8,65.2,74.7,155,74.7,269.4v640.2H7093.8z"/>
	<path class="st0" d="M8095.7,2217.2v-107c-29.4,38.1-64.5,68.6-105.4,91.3c-40.9,22.8-90.7,34.1-149.4,34.1
		c-39.9,0-77.3-6.5-112.5-19.4c-35.1-12.9-65.8-32.3-92-58.1c-26.2-25.8-46.9-57.5-62.1-95c-15.2-37.5-22.8-80.9-22.8-130.1v-3.7
		c0-54.1,8.4-100.8,25.2-140.2c16.8-39.4,40.1-72,70-97.8c29.9-25.8,65.5-45.2,107-58.1c41.4-12.9,87.3-19.4,137.6-19.4
		c43,0,80.5,3.7,112.5,11.1c32,7.4,63.2,17.2,93.6,29.5v-16.6c0-59-15.2-103.9-45.6-134.7c-30.4-30.7-75.5-46.1-135.3-46.1
		c-46.2,0-86.8,4.6-121.9,13.8c-35.1,9.2-72.1,22.5-110.9,39.7l-59.8-214c46.1-23.4,94.4-42.4,144.7-57.2
		c50.3-14.8,111.1-22.1,182.4-22.1c131.1,0,226.5,37.5,286.3,112.5c59.8,75,89.7,179.6,89.7,313.7v573.8H8095.7z M8100.4,1818.7
		c-21-11.1-44.3-20-70-26.7c-25.7-6.7-53.2-10.2-82.6-10.2c-51.4,0-91.8,11.7-121.1,35.1c-29.4,23.4-44,57.2-44,101.5v3.7
		c0,38.1,12,67.7,36.2,88.6c24.1,20.9,55.6,31.4,94.4,31.4c56.6,0,102-16,136.1-48c34.1-32,51.1-73.8,51.1-125.4V1818.7z"/>
	<path class="st0" d="M8599,1119.4V870.3h251.7v249.1H8599z M8605.3,2217.2v-988.9h239.1v988.9H8605.3z"/>
	<path class="st0" d="M9626.1,1503.2c-79.7,0-142.3,28.3-188,84.9c-45.6,56.6-68.4,144.5-68.4,263.8v365.3h-239.1v-988.9h239.1
		v199.3c24.1-67.6,57.1-121.8,99.1-162.4c41.9-40.6,98.5-59,169.9-55.4v293.4H9626.1z"/>
</g>
</svg>
